# xmcd
#
# Track frame offsets:
#	150
#	15300
#	36225
#	51750
#	67725
#	82800
#	97500
#	117375
#	131550
#	147975
#
# Disc length: 2085 seconds
#
# Revision: 1
# Processed by: cddbd v1.5.2PL0 Copyright (c) Steve Scherf et al.
# Submitted via: audiograbber 1.83.01
#
DISCID=7208230a
DTITLE=Dear John - Movie (Snd Track)
DYEAR=2010
DGENRE=Soundtrack
TTITLE0=Paperweight
TTITLE1=The Moon
TTITLE2=Amber
TTITLE3=Excelsior Lady
TTITLE4=Things and Time
TTITLE5=Little House
TTITLE6=This Is The Thing
TTITLE7=Think Of Me
TTITLE8=You Take My Troubles Away
TTITLE9=Dear John Theme
EXTD=
EXTT0=
EXTT1=
EXTT2=
EXTT3=
EXTT4=
EXTT5=
EXTT6=
EXTT7=
EXTT8=
EXTT9=
PLAYORDER=
